# xmcd
#
# Track frame offsets: 
#        150
#        9070
#        21417
#        32255
#        39962
#        50022
#        63282
#        72857
#        86257
#        99825
#        107352
#        117832
#
# Disc length: 1744 seconds
#
# Revision: 1
# Processed by: cddbd v1.5.2PL0 Copyright (c) Steve Scherf et al.
# Submitted via: ExactAudioCopy v0.99pb3
#
DISCID=7d06ce0c
DTITLE=Nelson, Willie - Country Favorites, Willie Nelson Style
DYEAR=2000
DGENRE=Country
TTITLE0=Columbus Stockade Blues
TTITLE1=Seasons of My Heart
TTITLE2=I'd Trade All of My Tomorrows (For Just One Yesterday )
TTITLE3=My Window Faces the South
TTITLE4=Go on Home
TTITLE5=Fraülein
TTITLE6=San Antonio Rose
TTITLE7=I Love You Because
TTITLE8=Don't You Ever Get Tired (Of Hurting Me)
TTITLE9=Home In San Antone
TTITLE10=Heartaches by the Number
TTITLE11=Making Believe
EXTD=
EXTT0=
EXTT1=
EXTT2=
EXTT3=
EXTT4=
EXTT5=
EXTT6=
EXTT7=
EXTT8=
EXTT9=
EXTT10=
EXTT11=
PLAYORDER=
